<?xml version="1.0" standalone="no"?>
<!DOCTYPE svg PUBLIC "-//W3C//DTD SVG 20010904//EN"
 "http://www.w3.org/TR/2001/REC-SVG-20010904/DTD/svg10.dtd">
<svg version="1.0" xmlns="http://www.w3.org/2000/svg"
 width="294.000000pt" height="294.000000pt" viewBox="0 0 294.000000 294.000000"
 preserveAspectRatio="xMidYMid meet">
<metadata>
Created by potrace 1.14, written by Peter Selinger 2001-2017
</metadata>
<g transform="translate(0.000000,294.000000) scale(0.100000,-0.100000)"
fill="#000000" stroke="none">
<path d="M0 1470 l0 -1470 1470 0 1470 0 0 1470 0 1470 -1470 0 -1470 0 0
-1470z m2203 1274 c35 -35 44 -86 24 -130 -14 -29 -25 -36 -87 -54 -64 -19
-74 -20 -100 -7 -22 11 -32 12 -38 4 -6 -7 -74 -127 -152 -267 -198 -353 -212
-380 -208 -380 1 0 98 31 213 69 116 38 211 66 213 62 1 -5 -59 -103 -135
-220 -271 -415 -432 -665 -430 -668 2 -1 68 25 147 57 98 40 159 59 188 60 24
0 42 -4 40 -9 -1 -5 -55 -67 -118 -138 -63 -71 -274 -310 -469 -531 l-354
-401 -28 19 -27 20 100 223 c55 122 119 264 143 315 24 50 40 92 36 92 -5 0
-52 -16 -105 -35 -192 -69 -195 -89 64 409 122 235 220 429 218 430 -1 2 -82
-21 -178 -50 -162 -50 -230 -64 -230 -48 0 4 20 43 44 88 24 45 103 198 177
341 307 601 294 577 335 598 37 19 43 19 263 3 278 -20 254 -20 241 3 -15 29
-12 73 6 99 22 31 102 71 145 72 26 0 44 -7 62 -26z"/>
</g>
</svg>
